<?xml version="1.0" encoding="utf-8"?>
<!-- Generator: Adobe Illustrator 16.0.0, SVG Export Plug-In . SVG Version: 6.00 Build 0)  -->
<!DOCTYPE svg PUBLIC "-//W3C//DTD SVG 1.1//EN" "http://www.w3.org/Graphics/SVG/1.1/DTD/svg11.dtd">
<svg version="1.1" id="Layer_1" xmlns="http://www.w3.org/2000/svg" xmlns:xlink="http://www.w3.org/1999/xlink" x="0px" y="0px"
	 width="1200px" height="1200px" viewBox="0 0 1200 1200" enable-background="new 0 0 1200 1200" xml:space="preserve">
<path fill="#9B93D0" d="M600,718.009h1c39.998-0.334,77.664-16,105.663-44.665c27.998-28.666,43.665-66.331,43.332-106.33
	C749.328,485.017,682.33,418.019,600,418.019c-83.664,0.667-150.662,68.332-149.995,150.995
	C450.671,651.011,517.669,718.009,600,718.009z M698.663,553.015c0-5,3.999-9,9-9c4.999,0,9,4,9,9v29.665c0,5-4.001,9-9,9
	c-5.001,0-9-4-9-9V553.015z M671.662,519.349c0-5,4.001-9,9.001-9c5.001,0,9,4,9,9v96.996c0,5-3.999,9-9,9c-5,0-9.001-4-9.001-9
	V519.349z M644.664,541.681c0-4.999,4.001-9,9.001-9s8.999,4,8.999,9v52.666c0,4.999-3.999,9-8.999,9s-9.001-4.001-9.001-9V541.681
	L644.664,541.681z M618,524.682c0-4.999,3.998-9,9-9c4.999,0,8.998,4.001,8.998,9v86.664c0,4.999-3.999,9-8.998,9
	c-5.002,0-9-4.001-9-9V524.682L618,524.682z M591,496.349c0-5,4-9,9-9c4.999,0,9,4,9,9v142.995c0,5.001-4.001,9.001-9,9.001
	c-5,0-9-4-9-9.001V496.349L591,496.349z M564.001,484.017c0-5,4-9,9-9c5,0,9,4,9,9v167.994c0,5-4,9-9,9c-5,0-9-4-9-9V484.017
	L564.001,484.017z M537.335,515.016c0-5,4-9,9-9c5,0,9,4,9,9v105.662c0,5-4,9-9,9c-5,0-9-4-9-9V515.016L537.335,515.016z
	 M510.336,553.015c0-5,4-9,9-9s9,4,9,9v29.665c0,5-4,9-9,9s-9-4-9-9V553.015z M483.337,587.68v-39.332c0-5,4-9,9-9s9,4,9,9v38.998
	c0,5-4,9-9,9S483.337,592.68,483.337,587.68z"/>
<text transform="matrix(1 0 0 1 412.5854 781.9814)" font-family="'MontserratAlternates-ExtraBold'" font-size="48" letter-spacing="4">SOUNDPACK</text>
</svg>
